#N canvas 625 156 715 555 10;
#X floatatom 39 282 5 0 0 0 - - -, f 5;
#X floatatom 95 282 5 0 0 0 - - -, f 5;
#X floatatom 154 506 6 0 0 0 - - -, f 6;
#X obj 125 46 tgl 35 0 empty empty empty 0 -6 0 8 -24198 -1 -1 25 25
;
#X floatatom 317 31 12 0 0 1 value - -, f 12;
#X symbolatom 277 47 15 0 0 1 event_code - -, f 15;
#X symbolatom 238 63 15 0 0 1 event_type - -, f 15;
#X floatatom 150 186 5 0 0 1 ev_syn - -, f 5;
#X obj 123 185 +;
#X msg 123 165 1;
#X obj 28 134 route key rel abs syn;
#X obj 495 414 tgl 25 0 empty empty empty 0 -6 0 8 -195568 -1 -1 0
1;
#X floatatom 152 282 5 0 0 0 - - -, f 5;
#X obj 433 237 route abs_hat0x abs_hat0y abs_hat1x abs_hat1y;
#X floatatom 433 259 7 0 0 0 - - -, f 7;
#X obj 178 100 hid 0;
#X obj 39 262 route rel_x rel_y rel_z rel_wheel;
#X floatatom 208 282 5 0 0 0 - - -, f 5;
#X obj 238 12 unpack s s f;
#X obj 75 217 route abs_x abs_y abs_z abs_rx abs_ry abs_rz abs_throttle
;
#X obj 433 275 tgl 15 0 empty empty empty 0 -6 0 8 -262144 -1 -1 0
-1;
#X floatatom 510 259 7 0 0 0 - - -, f 7;
#X obj 510 275 tgl 15 0 empty empty empty 0 -6 0 8 -262144 -1 -1 0
1;
#X floatatom 588 259 7 0 0 0 - - -, f 7;
#X obj 588 275 tgl 15 0 empty empty empty 0 -6 0 8 -262144 -1 -1 0
1;
#X floatatom 665 259 7 0 0 0 - - -, f 7;
#X obj 665 275 tgl 15 0 empty empty empty 0 -6 0 8 -262144 -1 -1 0
1;
#X floatatom 198 508 6 0 0 0 - - -, f 6;
#X floatatom 175 238 6 0 0 0 - - -, f 6;
#X floatatom 225 238 6 0 0 0 - - -, f 6;
#X floatatom 275 238 6 0 0 0 - - -, f 6;
#X floatatom 325 238 6 0 0 0 - - -, f 6;
#X floatatom 375 238 6 0 0 0 - - -, f 6;
#X obj 514 442 tgl 25 0 empty empty empty 0 -6 0 8 -195568 -1 -1 0
1;
#X obj 497 474 tgl 25 0 empty empty empty 0 -6 0 8 -195568 -1 -1 0
1;
#X obj 474 442 tgl 25 0 empty empty empty 0 -6 0 8 -195568 -1 -1 0
1;
#X obj 157 392 tgl 25 0 empty empty empty 0 -6 0 8 -195568 -1 -1 0
1;
#X obj 236 393 tgl 25 0 empty empty empty 0 -6 0 8 -195568 -1 -1 0
1;
#X obj 157 421 tgl 25 0 empty empty empty 0 -6 0 8 -195568 -1 -1 0
1;
#X obj 237 424 tgl 25 0 empty empty empty 0 -6 0 8 -195568 -1 -1 0
1;
#X obj 261 345 tgl 25 0 empty empty empty 0 -6 0 8 -195568 -1 -1 0
1;
#X obj 291 345 tgl 25 0 empty empty empty 0 -6 0 8 -195568 -1 -1 0
1;
#X obj 171 471 tgl 25 0 empty empty empty 0 -6 0 8 -258113 -1 -1 0
1;
#X obj 351 345 tgl 25 0 empty empty empty 0 -6 0 8 -195568 -1 -1 0
1;
#X obj 381 345 tgl 25 0 empty empty empty 0 -6 0 8 -195568 -1 -1 0
1;
#X obj 411 345 tgl 25 0 empty empty empty 0 -6 0 8 -195568 -1 -1 0
1;
#X obj 21 303 route btn_0 btn_1 btn_2 btn_3 btn_4 btn_5 btn_6 btn_7
btn_8 btn_9 btn_10 btn_11 btn_12 btn_13 btn_14 btn_15;
#X obj 441 345 tgl 25 0 empty empty empty 0 -6 0 8 -195568 -1 -1 0
1;
#X obj 471 345 tgl 25 0 empty empty empty 0 -6 0 8 -195568 -1 -1 0
1;
#X msg 170 9 open 18;
#X obj 71 470 s btn1L;
#X obj 71 492 s btn2L;
#X obj 271 467 s btn1R;
#X obj 272 489 s btn2R;
#X obj 155 527 s jxL;
#X obj 202 529 s jyL;
#X obj 557 427 s btnT;
#X text 581 411 triangulo;
#X text 595 453 circulo;
#X obj 571 469 s btnC;
#X text 548 497 X;
#X obj 524 513 s btnX;
#X text 410 489 quadrado;
#X obj 412 508 s btnQ;
#X obj 204 484 s btnJL;
#X connect 2 0 54 0;
#X connect 3 0 15 0;
#X connect 7 0 8 1;
#X connect 8 0 7 0;
#X connect 9 0 8 0;
#X connect 10 0 46 0;
#X connect 10 1 16 0;
#X connect 10 2 19 0;
#X connect 10 3 9 0;
#X connect 11 0 56 0;
#X connect 13 0 14 0;
#X connect 13 1 21 0;
#X connect 13 2 23 0;
#X connect 13 3 25 0;
#X connect 14 0 20 0;
#X connect 15 0 10 0;
#X connect 15 0 18 0;
#X connect 16 0 0 0;
#X connect 16 1 1 0;
#X connect 16 2 12 0;
#X connect 16 3 17 0;
#X connect 18 0 6 0;
#X connect 18 1 5 0;
#X connect 18 2 4 0;
#X connect 19 0 2 0;
#X connect 19 1 27 0;
#X connect 19 2 28 0;
#X connect 19 3 29 0;
#X connect 19 4 30 0;
#X connect 19 5 31 0;
#X connect 19 6 32 0;
#X connect 19 7 13 0;
#X connect 21 0 22 0;
#X connect 23 0 24 0;
#X connect 25 0 26 0;
#X connect 27 0 55 0;
#X connect 33 0 59 0;
#X connect 34 0 61 0;
#X connect 35 0 63 0;
#X connect 36 0 50 0;
#X connect 37 0 52 0;
#X connect 38 0 51 0;
#X connect 39 0 53 0;
#X connect 42 0 64 0;
#X connect 46 0 11 0;
#X connect 46 1 33 0;
#X connect 46 2 34 0;
#X connect 46 3 35 0;
#X connect 46 4 36 0;
#X connect 46 5 37 0;
#X connect 46 6 38 0;
#X connect 46 7 39 0;
#X connect 46 8 40 0;
#X connect 46 9 41 0;
#X connect 46 10 42 0;
#X connect 46 11 43 0;
#X connect 46 12 44 0;
#X connect 46 13 45 0;
#X connect 46 14 47 0;
#X connect 46 15 48 0;
#X connect 49 0 15 0;
